<svg xmlns="http://www.w3.org/2000/svg" width="182.63" height="59.714" viewBox="0 0 182.63 59.714"><defs><style>.a{fill:#aeb8fe;}.b,.c{fill:#1d2d44;}.b{fill-rule:evenodd;}.c{font-size:28px;font-family:Nunito-ExtraBold, Nunito;font-weight:800;}</style></defs><g transform="translate(0 81.688)"><path class="a" d="M59.89-35.3a5.658,5.658,0,0,0,7.729-2.071L92.348-80.2a5.658,5.658,0,0,0-2.071-7.729,5.658,5.658,0,0,0-7.729,2.071L57.819-43.026A5.658,5.658,0,0,0,59.89-35.3" transform="translate(-19.494 7)"/><path class="b" d="M37.548-33.328s-5.16,4.6-14.355,4.6A23.2,23.2,0,0,1,0-51.916,23.2,23.2,0,0,1,23.193-75.11,23.209,23.209,0,0,1,44.272-61.6c1.223,2,2.251,8.844,2.193,9.551l1.057,18.785s.133,3.861-4.32,4.291C39.363-28.6,38.847-30.6,37.548-33.328Zm-14.355-32.1A13.517,13.517,0,0,1,36.7-51.916,13.517,13.517,0,0,1,23.193-38.406,13.517,13.517,0,0,1,9.683-51.916,13.517,13.517,0,0,1,23.193-65.427Z" transform="translate(0 2.361)"/><text class="c" transform="translate(70.63 -31.974)"><tspan x="0" y="0">Anovote</tspan></text></g></svg>