<svg xmlns="http://www.w3.org/2000/svg" width="181.202" height="55.326" viewBox="0 0 181.202 55.326">
  <g id="Logo" transform="translate(0 81.688)">
    <path id="Path_5" data-name="Path 5" d="M59.89-35.3a5.658,5.658,0,0,0,7.729-2.071L92.348-80.2a5.658,5.658,0,0,0-2.071-7.729,5.658,5.658,0,0,0-7.729,2.071L57.819-43.026A5.658,5.658,0,0,0,59.89-35.3" transform="translate(-19.494 7)" fill="#aeb8fe"/>
    <path id="Path_6" data-name="Path 6" d="M37.548-33.328s-5.16,4.6-14.355,4.6A23.2,23.2,0,0,1,0-51.916,23.2,23.2,0,0,1,23.193-75.11,23.209,23.209,0,0,1,44.272-61.6c1.223,2,2.251,8.844,2.193,9.551l1.057,18.785s.133,3.861-4.32,4.291C39.363-28.6,38.847-30.6,37.548-33.328Zm-14.355-32.1A13.517,13.517,0,0,1,36.7-51.916,13.517,13.517,0,0,1,23.193-38.406,13.517,13.517,0,0,1,9.683-51.916,13.517,13.517,0,0,1,23.193-65.427Z" transform="translate(0 2.361)" fill="#1d2d44" fill-rule="evenodd"/>
    <path id="Path_45" data-name="Path 45" d="M2.548.252A1.844,1.844,0,0,1,.868-.532,1.925,1.925,0,0,1,.9-2.464L8.064-18.172a3.433,3.433,0,0,1,1.064-1.386,2.417,2.417,0,0,1,1.428-.434,2.417,2.417,0,0,1,1.428.434,3.241,3.241,0,0,1,1.036,1.386L20.244-2.464a1.977,1.977,0,0,1,.042,1.946A1.734,1.734,0,0,1,18.7.252,2.18,2.18,0,0,1,17.234-.2a3.673,3.673,0,0,1-.91-1.4L15.148-4.284H5.936L4.788-1.6a4.1,4.1,0,0,1-.9,1.414A1.924,1.924,0,0,1,2.548.252ZM10.5-15.12,7.392-7.672H13.72L10.556-15.12ZM24.836.252A1.893,1.893,0,0,1,22.708-1.9v-9.94a1.857,1.857,0,0,1,2.072-2.128,1.857,1.857,0,0,1,2.072,2.128v.112a4.6,4.6,0,0,1,1.876-1.708,5.8,5.8,0,0,1,2.632-.588A4.517,4.517,0,0,1,35-12.614,6.607,6.607,0,0,1,36.2-8.26V-1.9A1.893,1.893,0,0,1,34.076.252a2.071,2.071,0,0,1-1.554-.56,2.192,2.192,0,0,1-.546-1.6v-6.16a3.183,3.183,0,0,0-.532-2.058,1.937,1.937,0,0,0-1.568-.63,2.815,2.815,0,0,0-2.142.84,3.118,3.118,0,0,0-.8,2.24V-1.9A1.881,1.881,0,0,1,24.836.252Zm21.14.056a8,8,0,0,1-3.85-.882,6.207,6.207,0,0,1-2.534-2.492,7.74,7.74,0,0,1-.9-3.822,7.679,7.679,0,0,1,.9-3.794,6.117,6.117,0,0,1,2.534-2.478,8.109,8.109,0,0,1,3.85-.868,8.109,8.109,0,0,1,3.85.868,6.206,6.206,0,0,1,2.548,2.478,7.584,7.584,0,0,1,.91,3.794,7.643,7.643,0,0,1-.91,3.822A6.3,6.3,0,0,1,49.826-.574,8,8,0,0,1,45.976.308Zm0-3.164a2.782,2.782,0,0,0,2.2-.98,4.566,4.566,0,0,0,.854-3.052,4.458,4.458,0,0,0-.854-3.01,2.8,2.8,0,0,0-2.2-.966,2.758,2.758,0,0,0-2.184.966,4.51,4.51,0,0,0-.84,3.01,4.62,4.62,0,0,0,.84,3.052A2.741,2.741,0,0,0,45.976-2.856ZM61.348.252A2.518,2.518,0,0,1,58.94-1.484l-4.228-9.744a2.105,2.105,0,0,1-.028-1.918,1.91,1.91,0,0,1,1.848-.826,2.028,2.028,0,0,1,1.232.35,2.861,2.861,0,0,1,.84,1.33l2.884,7.28,2.968-7.308a3.02,3.02,0,0,1,.868-1.3,2.182,2.182,0,0,1,1.316-.35,1.58,1.58,0,0,1,1.512.826,2,2,0,0,1-.056,1.89L63.784-1.484A2.5,2.5,0,0,1,61.348.252Zm15.4.056A8,8,0,0,1,72.9-.574a6.207,6.207,0,0,1-2.534-2.492,7.74,7.74,0,0,1-.9-3.822,7.679,7.679,0,0,1,.9-3.794A6.117,6.117,0,0,1,72.9-13.16a8.109,8.109,0,0,1,3.85-.868,8.109,8.109,0,0,1,3.85.868,6.206,6.206,0,0,1,2.548,2.478,7.584,7.584,0,0,1,.91,3.794,7.643,7.643,0,0,1-.91,3.822A6.3,6.3,0,0,1,80.6-.574,8,8,0,0,1,76.748.308Zm0-3.164a2.782,2.782,0,0,0,2.2-.98A4.566,4.566,0,0,0,79.8-6.888a4.458,4.458,0,0,0-.854-3.01,2.8,2.8,0,0,0-2.2-.966,2.758,2.758,0,0,0-2.184.966,4.51,4.51,0,0,0-.84,3.01,4.62,4.62,0,0,0,.84,3.052A2.741,2.741,0,0,0,76.748-2.856ZM93.24.308q-5.8,0-5.8-5.628v-5.264H86.268q-1.652,0-1.652-1.568a1.436,1.436,0,0,1,1.652-1.6h1.176v-2.128a1.893,1.893,0,0,1,2.128-2.156,1.881,1.881,0,0,1,2.1,2.156v2.128h2.66a1.423,1.423,0,0,1,1.624,1.6,1.411,1.411,0,0,1-1.624,1.568h-2.66v5.1a2.512,2.512,0,0,0,.546,1.764,2.289,2.289,0,0,0,1.75.588,3.482,3.482,0,0,0,.784-.084,5.036,5.036,0,0,1,.672-.112.75.75,0,0,1,.644.252,1.816,1.816,0,0,1,.252,1.148A2.85,2.85,0,0,1,96.1-.742a1.381,1.381,0,0,1-.784.714,5.02,5.02,0,0,1-.994.238A7.176,7.176,0,0,1,93.24.308Zm11.564,0a9.206,9.206,0,0,1-4.186-.882A6.321,6.321,0,0,1,97.93-3.066a7.4,7.4,0,0,1-.938-3.794A7.467,7.467,0,0,1,97.9-10.6a6.6,6.6,0,0,1,2.492-2.52,7.2,7.2,0,0,1,3.654-.91,6.2,6.2,0,0,1,4.76,1.89,7.19,7.19,0,0,1,1.764,5.11q0,1.064-1.316,1.064h-8.232a3.421,3.421,0,0,0,1.19,2.366,4.3,4.3,0,0,0,2.674.742,8.7,8.7,0,0,0,1.526-.154,6.043,6.043,0,0,0,1.638-.546,1.649,1.649,0,0,1,1.372-.154,1.353,1.353,0,0,1,.77.8,1.659,1.659,0,0,1,0,1.162,1.849,1.849,0,0,1-.938.994,8.333,8.333,0,0,1-2.17.8A10.46,10.46,0,0,1,104.8.308Zm-.588-11.536a2.962,2.962,0,0,0-2.17.812,3.778,3.778,0,0,0-1.022,2.268h6.048Q106.9-11.228,104.216-11.228Z" transform="translate(70.63 -31.974)" fill="#1d2d44"/>
  </g>
</svg>
