<svg xmlns="http://www.w3.org/2000/svg" width="2090.639" height="946.618" viewBox="0 0 2090.639 946.618">
  <g id="lines" transform="translate(121.549 -160.007)">
    <path id="Path_48" data-name="Path 48" d="M662.656,465.957c373.475-24.543,537.725-73.01,411.706-160.617s-56.555,153.958,66.249,105.866,98.648-133.368,225.828-143.651,303.38,24.438,340.427,14.381" transform="translate(-783.156 515.207)" fill="none" stroke="#aeb8fe" stroke-width="32" stroke-dasharray="16"/>
    <path id="Path_46" data-name="Path 46" d="M830.38,795.333c417.963-66.583,493.6-228.918,352.574-466.592C953,139.607,915.226,556.964,918.282,563.633S1083.133,781.97,1220.566,651.5s87.378-345.251,229.708-373.149,354.247,147.22,505.573,13.5" fill="none" stroke="#89f0d7" stroke-width="40" stroke-dasharray="12"/>
    <path id="Path_47" data-name="Path 47" d="M120.356,423.2c76.388-55.383,227.053,72.218,193.894,56.6s-7-402.82,27.511-326.159S129.768,110.605,202.773,78.5s74.146,93.542-458.976,25.709" transform="translate(978 92.866)" fill="none" stroke="#fee5ae" stroke-width="12" stroke-dasharray="12"/>
    <path id="Path_49" data-name="Path 49" d="M120.356,423.2c76.388-55.383,227.053,72.218,193.894,56.6s-7-402.82,27.511-326.159S129.768,110.605,202.773,78.5s124.371,61.428-156.691,90.537" transform="translate(1463.852 619.496)" fill="none" stroke="#fee5ae" stroke-width="12" stroke-dasharray="12"/>
  </g>
</svg>
