<svg xmlns="http://www.w3.org/2000/svg" width="224" height="255.001" viewBox="0 0 224 255.001">
  <g id="lock-with-effect" transform="translate(-1140 -1948)">
    <path id="Exclusion_1" data-name="Exclusion 1" d="M91.5,205a90.437,90.437,0,0,1-51.159-15.8A92.589,92.589,0,0,1,1.859,131.142,94.254,94.254,0,0,1,3.185,88.221,92.594,92.594,0,0,1,44.248,33.273C44.084,35.489,44,37.752,44,40a90.669,90.669,0,0,0,1.828,18.138A89.507,89.507,0,0,0,59.371,90.32,90.5,90.5,0,0,0,83.68,114.629a89.506,89.506,0,0,0,32.182,13.542A90.668,90.668,0,0,0,134,130a89.661,89.661,0,0,0,48.951-14.464,93.8,93.8,0,0,1-2.353,18.108,92.571,92.571,0,0,1-38.815,56.149A90.39,90.39,0,0,1,91.5,205Zm91.451-89.465v0c.032-1.005.048-2.026.048-3.034a94.171,94.171,0,0,0-1.859-18.642A92.584,92.584,0,0,0,142.659,35.8a90.623,90.623,0,0,0-98.411-2.525A89.206,89.206,0,0,1,53.052.618,90.284,90.284,0,0,1,72.623-25.825,89.685,89.685,0,0,1,134-50a90.663,90.663,0,0,1,18.138,1.828,89.547,89.547,0,0,1,16.894,5.244,90.011,90.011,0,0,1,15.288,8.3,90.5,90.5,0,0,1,24.31,24.31,89.914,89.914,0,0,1-8.841,111.736,90.509,90.509,0,0,1-16.836,14.119Z" transform="translate(1140 1998)" fill="rgba(255,90,144,0.83)"/>
    <path id="Icon_material-lock-outline" data-name="Icon material-lock-outline" d="M69.822,136.075c8.775,0,15.955-7.57,15.955-16.822s-7.18-16.822-15.955-16.822S53.866,110,53.866,119.253,61.046,136.075,69.822,136.075Zm47.866-75.7H109.71V43.555C109.71,20.34,91.84,1.5,69.822,1.5S29.933,20.34,29.933,43.555V60.376H21.955C13.18,60.376,6,67.946,6,77.2v84.109c0,9.252,7.18,16.822,15.955,16.822h95.732c8.775,0,15.955-7.57,15.955-16.822V77.2C133.643,67.946,126.463,60.376,117.688,60.376Zm-72.6-16.822c0-14.383,11.089-26.074,24.731-26.074S94.553,29.172,94.553,43.555V60.376H45.091Zm72.6,117.753H21.955V77.2h95.732Z" transform="translate(1166.471 1974.29)" fill="#1d2d44"/>
  </g>
</svg>
