<svg id="Result_icon" data-name="Result icon" xmlns="http://www.w3.org/2000/svg" width="48" height="51.766" viewBox="0 0 48 51.766">
  <path id="icon" d="M11.061,11.093C15.307,6.846,16.985,0,16.985,0s1.639,6.846,5.885,11.093,11.1,5.893,11.1,5.893-6.8,1.688-11.043,5.934S16.985,33.97,16.985,33.97s-1.678-6.8-5.924-11.051S0,16.985,0,16.985,6.814,15.339,11.061,11.093Z" transform="translate(9.416 9.185)" fill="#758bfd"/>
  <path id="icon-2" data-name="icon" d="M5.607,5.624A13.725,13.725,0,0,0,8.611,0a13.565,13.565,0,0,0,2.984,5.624,13.6,13.6,0,0,0,5.627,2.987,13.74,13.74,0,0,0-5.6,3.008,13.778,13.778,0,0,0-3.013,5.6,13.7,13.7,0,0,0-3-5.6A13.749,13.749,0,0,0,0,8.611,13.576,13.576,0,0,0,5.607,5.624Z" transform="translate(0 34.544)" fill="#aeb8fe"/>
  <path id="icon-3" data-name="icon" d="M2.8,2.812A6.863,6.863,0,0,0,4.305,0,6.783,6.783,0,0,0,5.8,2.812,6.8,6.8,0,0,0,8.611,4.305a6.87,6.87,0,0,0-2.8,1.5,6.889,6.889,0,0,0-1.506,2.8,6.852,6.852,0,0,0-1.5-2.8A6.874,6.874,0,0,0,0,4.305,6.788,6.788,0,0,0,2.8,2.812Z" transform="translate(35.164 33.544)" fill="#f5f7f8"/>
  <path id="icon-4" data-name="icon" d="M3.9,3.913A9.55,9.55,0,0,0,5.991,0,9.439,9.439,0,0,0,8.068,3.913a9.462,9.462,0,0,0,3.915,2.079,9.56,9.56,0,0,0-3.9,2.093,9.587,9.587,0,0,0-2.1,3.9,9.535,9.535,0,0,0-2.09-3.9A9.566,9.566,0,0,0,0,5.991,9.447,9.447,0,0,0,3.9,3.913Z" transform="translate(36.017 9.185)" fill="#aeb8fe"/>
  <path id="icon-5" data-name="icon" d="M4.941,4.956A12.1,12.1,0,0,0,7.588,0a11.954,11.954,0,0,0,2.629,4.956,11.983,11.983,0,0,0,4.959,2.633,12.108,12.108,0,0,0-4.934,2.651,12.142,12.142,0,0,0-2.655,4.937A12.076,12.076,0,0,0,4.941,10.24,12.116,12.116,0,0,0,0,7.588,11.964,11.964,0,0,0,4.941,4.956Z" transform="translate(2.699)" fill="#f5f7f8"/>
</svg>
